<?xml version="1.0" standalone="no"?><!DOCTYPE svg PUBLIC "-//W3C//DTD SVG 1.1//EN" "http://www.w3.org/Graphics/SVG/1.1/DTD/svg11.dtd"><svg t="1586504683154" class="icon" viewBox="0 0 1024 1024" version="1.1" xmlns="http://www.w3.org/2000/svg" p-id="3932" xmlns:xlink="http://www.w3.org/1999/xlink" width="200" height="200"><defs><style type="text/css"></style></defs><path d="M400.016 594.976c0.016 1.44 0.064 2.784 0.096 3.68l1.76 50.288c139.216-8.592 247.952-125.216 246.816-264.688l-51.824 1.808c-0.64 0.032-1.312 0.096-1.968 0.208a212.048 212.048 0 0 1-6.384 49.2c3.408 3.84 9.616 10.304 20.736 20.784l12.576 11.808-7.2 15.68c-23.392 50.944-65.04 95.68-117.264 126.032l-17.648 10.24-12.96-15.744a308.992 308.992 0 0 0-16.736-19.104c-14.032 4.896-30.912 9.264-50 9.808z m-5.168 102.304c-22.544 0-39.92-16.72-40.704-39.472l-2-57.456c-0.368-10.336-1.04-29.6 12.352-42.88 5.184-5.136 14.592-10.72 28.56-10.496 14.48 0.592 29.696-2.56 48.752-9.968 16.912-9.184 32.88 3.328 48.336 20.576 30.784-21.216 56.08-48.48 73.2-78.88-20.16-20-28.144-32.256-23.536-47.04 5.248-17.408 7.632-35.36 7.008-53.216-0.896-25.344 23.664-39.472 48.368-40.352l59.04-2.08c23.344-0.736 41.456 16.144 42.272 39.44 5.984 171.456-128.624 315.792-300.064 321.792l-1.584 0.032zM512 800c159.056 0 288-128.944 288-288s-128.944-288-288-288-288 128.944-288 288 128.944 288 288 288z m0 48c-185.568 0-336-150.432-336-336s150.432-336 336-336 336 150.432 336 336-150.432 336-336 336z" p-id="3933"></path></svg>